<svg xmlns="http://www.w3.org/2000/svg" viewBox="0 0 64 64" role="img" aria-label="Książki do zadań specjalnych">
  <defs>
    <linearGradient id="bg" x1="0" y1="0" x2="1" y2="1">
      <stop offset="0%" stop-color="#16423C" />
      <stop offset="100%" stop-color="#6A9C89" />
    </linearGradient>
    <linearGradient id="book" x1="0" y1="0" x2="0" y2="1">
      <stop offset="0%" stop-color="#F8F4E9" />
      <stop offset="100%" stop-color="#EFE6D3" />
    </linearGradient>
  </defs>
  <rect width="64" height="64" rx="14" fill="url(#bg)" />
  <path d="M14 20c0-2.2 1.8-4 4-4h12c4.5 0 8 1.4 10 3.5V48c-2-2-5.5-3.2-10-3.2H18c-2.2 0-4-1.8-4-4V20z" fill="url(#book)"/>
  <path d="M50 20c0-2.2-1.8-4-4-4H34c-4.5 0-8 1.4-10 3.5V48c2-2 5.5-3.2 10-3.2h12c2.2 0 4-1.8 4-4V20z" fill="url(#book)"/>
  <path d="M32 20.5V48" stroke="#D6C7A8" stroke-width="2" />
  <circle cx="47" cy="17" r="7" fill="#F4B400" />
  <text x="47" y="20" text-anchor="middle" font-family="Georgia, serif" font-size="8" fill="#16423C">★</text>
</svg>
